<?xml version="1.0" encoding="iso-8859-1"?>
<!-- Generator: Adobe Illustrator 19.0.0, SVG Export Plug-In . SVG Version: 6.00 Build 0)  -->
<svg version="1.1" id="Layer_1" xmlns="http://www.w3.org/2000/svg" xmlns:xlink="http://www.w3.org/1999/xlink" x="0px" y="0px"
	viewBox="0 0 512 512" style="enable-background:new 0 0 512 512;" xml:space="preserve">
	<style>
	 	svg {
			fill: rgb(80, 82, 86);
		}
	</style>
<g>
	<g>
		<polygon points="322.783,9.783 322.783,133.565 446.565,133.565 		"/>
	</g>
</g>
<g>
	<g>
		<path d="M306.087,166.957c-9.217,0-16.696-7.479-16.696-16.696V0H72.348c-9.217,0-16.696,7.479-16.696,16.696v478.609
			c0,9.217,7.479,16.696,16.696,16.696h367.304c9.217,0,16.696-7.479,16.696-16.696V166.957H306.087z M272.696,411.826H139.13
			c-9.217,0-16.696-7.479-16.696-16.696s7.479-16.696,16.696-16.696h133.565c9.217,0,16.696,7.479,16.696,16.696
			S281.913,411.826,272.696,411.826z M372.87,345.043H139.13c-9.217,0-16.696-7.479-16.696-16.696s7.479-16.696,16.696-16.696
			H372.87c9.217,0,16.696,7.479,16.696,16.696S382.087,345.043,372.87,345.043z M372.87,278.261H139.13
			c-9.217,0-16.696-7.479-16.696-16.696c0-9.217,7.479-16.696,16.696-16.696H372.87c9.217,0,16.696,7.479,16.696,16.696
			C389.565,270.782,382.087,278.261,372.87,278.261z"/>
	</g>
</g>
</svg>
